<?xml version="1.0" encoding="UTF-8"?>
<svg id="Layer_2" data-name="Layer 2" xmlns="http://www.w3.org/2000/svg" viewBox="0 0 512 512">
  <defs>
    <style>
      .cls-1 {
        fill: #24232b;
        stroke-width: 0px;
      }
    </style>
  </defs>
  <g id="Layer_1-2" data-name="Layer 1">
    <path class="cls-1" d="m336,352c97.2,0,176-78.8,176-176S433.2,0,336,0s-176,78.8-176,176c0,18.7,2.9,36.8,8.3,53.7L7,391c-4.5,4.5-7,10.6-7,17v80c0,13.3,10.7,24,24,24h80c13.3,0,24-10.7,24-24v-40h40c13.3,0,24-10.7,24-24v-40h40c6.4,0,12.5-2.5,17-7l33.3-33.3c16.9,5.4,35,8.3,53.7,8.3Zm40-256c22.09,0,40,17.91,40,40s-17.91,40-40,40-40-17.91-40-40,17.91-40,40-40Z"/>
  </g>
</svg>